<?xml version="1.0" encoding="utf-8"?>
<!-- Generator: Adobe Illustrator 22.1.0, SVG Export Plug-In . SVG Version: 6.00 Build 0)  -->
<svg version="1.1" id="Capa_1" xmlns="http://www.w3.org/2000/svg" xmlns:xlink="http://www.w3.org/1999/xlink" x="0px" y="0px"
	 width="500px" height="500px" viewBox="0 0 500 500" style="enable-background:new 0 0 500 500;" xml:space="preserve">
<style type="text/css">
	.st0{opacity:0.5;}
	.st1{fill:#FFFFFF;}
</style>
<g class="st0">
	<g>
		<path class="st1" d="M308.5,388.4l14-14c4.6-4.8,6.9-10.5,6.9-17c0-6.6-2.3-12.2-6.9-16.8l-90.7-90.7l90.7-90.6
			c4.6-4.6,6.9-10.2,6.9-16.8c0-6.5-2.3-12.2-6.9-17l-14-13.8c-4.7-4.7-10.4-7.1-17-7.1c-6.7,0-12.3,2.4-16.8,7.1L153.2,233.2
			c-4.7,4.5-7.1,10.1-7.1,16.8c0,6.6,2.4,12.3,7.1,17l121.6,121.4c4.6,4.6,10.2,6.9,16.8,6.9C298,395.3,303.7,393,308.5,388.4z"/>
	</g>
	<g>
		<path class="st1" d="M249.9,0c66.8,0,129.6,26,176.8,73.2S500,183.2,500,250s-26,129.6-73.2,176.8C379.5,474,316.7,500,249.9,500
			s-129.6-26-176.8-73.2S-0.1,316.8-0.1,250s26-129.6,73.2-176.8C120.4,26,183.2,0,249.9,0z M249.9,454.5
			c54.6,0,106-21.3,144.6-59.9c38.7-38.6,60-90,60-144.6s-21.3-106-59.9-144.6s-90-59.9-144.6-59.9s-106,21.3-144.6,59.9
			s-59.9,90-59.9,144.6s21.3,106,59.9,144.6C143.9,433.3,195.3,454.5,249.9,454.5z"/>
	</g>
</g>
</svg>
