<?xml version="1.0" encoding="utf-8"?>
<!-- Generator: Adobe Illustrator 22.1.0, SVG Export Plug-In . SVG Version: 6.00 Build 0)  -->
<svg version="1.1" id="Capa_1" xmlns="http://www.w3.org/2000/svg" xmlns:xlink="http://www.w3.org/1999/xlink" x="0px" y="0px"
	 width="444.8px" height="444.8px" viewBox="0 0 444.8 444.8" style="enable-background:new 0 0 444.8 444.8;" xml:space="preserve"
	>
<style type="text/css">
	.st0{fill:#FDB2B2;}
</style>
<g>
	<path class="st0" d="M114.2,10.6L92.8,32c-7,7.4-10.6,16.1-10.6,26c0,10.1,3.5,18.7,10.6,25.7l138.8,138.8L92.8,361.2
		c-7,7-10.6,15.6-10.6,25.7c0,9.9,3.5,18.6,10.6,26l21.4,21.1c7.2,7.2,15.9,10.8,26,10.8c10.3,0,18.8-3.6,25.7-10.8l185.9-185.9
		c7.2-6.9,10.8-15.4,10.8-25.7c0-10.1-3.6-18.8-10.8-26L165.9,10.6c-7-7-15.6-10.6-25.7-10.6C130.3,0,121.6,3.5,114.2,10.6z"/>
</g>
</svg>
