<?xml version="1.0" encoding="utf-8"?>
<!-- Generator: Adobe Illustrator 22.1.0, SVG Export Plug-In . SVG Version: 6.00 Build 0)  -->
<svg version="1.1" id="Layer_1" xmlns="http://www.w3.org/2000/svg" xmlns:xlink="http://www.w3.org/1999/xlink" x="0px" y="0px"
	 width="800px" height="167.3px" viewBox="0 0 800 167.3" style="enable-background:new 0 0 800 167.3;" xml:space="preserve">
<style type="text/css">
	.st0{fill:#FFFFFF;}
</style>
<g>
	<path class="st0" d="M0.1,40.2c0-6.6,1.2-12.5,3.5-17.6s5.4-9.3,9.1-12.6c3.8-3.3,8-5.8,12.7-7.5s9.4-2.5,14.2-2.5S49,0.9,53.7,2.6
		s8.9,4.2,12.7,7.5c3.8,3.3,6.8,7.5,9.1,12.6S79,33.6,79,40.2V127c0,6.8-1.2,12.7-3.5,17.7c-2.3,5-5.4,9.2-9.1,12.5
		c-3.8,3.3-8,5.8-12.7,7.5c-4.7,1.7-9.4,2.5-14.2,2.5s-9.5-0.8-14.2-2.5c-4.7-1.7-8.9-4.2-12.7-7.5c-3.8-3.3-6.8-7.5-9.1-12.5
		c-2.3-5-3.5-10.9-3.5-17.7V40.2z M23.6,127c0,5.7,1.6,9.9,4.7,12.6c3.2,2.7,6.9,4,11.2,4s8-1.4,11.2-4c3.2-2.7,4.7-6.9,4.7-12.6
		V40.2c0-5.7-1.6-9.9-4.7-12.6c-3.2-2.7-6.9-4-11.2-4s-8,1.4-11.2,4s-4.7,6.9-4.7,12.6C23.6,40.2,23.6,127,23.6,127z"/>
	<path class="st0" d="M721.1,40.2c0-6.6,1.2-12.5,3.5-17.6c2.3-5.1,5.4-9.3,9.1-12.6c3.8-3.3,8-5.8,12.7-7.5
		c4.7-1.7,9.4-2.5,14.2-2.5c4.8,0,9.5,0.8,14.2,2.5s8.9,4.2,12.7,7.5c3.8,3.3,6.8,7.5,9.1,12.6c2.3,5.1,3.5,10.9,3.5,17.6V127
		c0,6.8-1.2,12.7-3.5,17.7c-2.3,5-5.4,9.2-9.1,12.5c-3.8,3.3-8,5.8-12.7,7.5c-4.7,1.7-9.4,2.5-14.2,2.5c-4.8,0-9.5-0.8-14.2-2.5
		c-4.7-1.7-8.9-4.2-12.7-7.5c-3.8-3.3-6.8-7.5-9.1-12.5c-2.3-5-3.5-10.9-3.5-17.7V40.2z M744.6,127c0,5.7,1.6,9.9,4.7,12.6
		c3.2,2.7,6.9,4,11.2,4c4.3,0,8-1.4,11.2-4c3.2-2.7,4.7-6.9,4.7-12.6V40.2c0-5.7-1.6-9.9-4.7-12.6c-3.2-2.7-6.9-4-11.2-4
		c-4.3,0-8,1.4-11.2,4c-3.2,2.7-4.7,6.9-4.7,12.6V127z"/>
	<path class="st0" d="M101.3,0.1h23l30.8,88.5h0.5l30.5-88.5h23.2v167.1h-24V65.6h-0.5l-23.7,71.8h-12l-23.5-71.8h-0.5v101.6h-24
		L101.3,0.1L101.3,0.1z"/>
	<path class="st0" d="M231.6,0.1h23l36.1,100.7h0.5V0.1h24v167.1h-22.5L256,66.7h-0.5v100.5h-24L231.6,0.1L231.6,0.1z"/>
	<path class="st0" d="M337.4,0.1h24v167.1h-24V0.1z"/>
	<path class="st0" d="M491.7,167.2h-24V65.6h-0.5l-23.5,71.8h-12l-23.7-71.8h-0.5v101.6h-24V0.1h23.2l30.5,88.5h0.5l30.8-88.5h23
		V167.2z"/>
	<path class="st0" d="M513.9,40.2c0-6.8,1.2-12.7,3.5-17.7c2.3-5,5.4-9.2,9.1-12.5c3.8-3.3,8-5.8,12.7-7.5s9.4-2.5,14.2-2.5
		s9.5,0.8,14.2,2.5c4.7,1.7,8.9,4.2,12.7,7.5c3.8,3.3,6.8,7.5,9.1,12.5s3.5,10.9,3.5,17.7V127c0,6.6-1.2,12.5-3.5,17.6
		s-5.4,9.3-9.1,12.6c-3.8,3.3-8,5.8-12.7,7.5c-4.7,1.7-9.4,2.5-14.2,2.5c-4.8,0-9.5-0.8-14.2-2.5c-4.7-1.7-8.9-4.2-12.7-7.5
		c-3.8-3.3-6.8-7.5-9.1-12.6c-2.3-5.1-3.5-10.9-3.5-17.6V40.2z M537.5,127c0,5.7,1.6,9.9,4.7,12.6c3.2,2.7,6.9,4,11.2,4
		c4.3,0,8-1.4,11.2-4c3.2-2.7,4.7-6.9,4.7-12.6V40.2c0-5.7-1.6-9.9-4.7-12.6c-3.2-2.7-6.9-4-11.2-4c-4.3,0-8,1.4-11.2,4
		c-3.2,2.7-4.7,6.9-4.7,12.6V127z"/>
	<path class="st0" d="M615.2,0.1h24v100.5h0.5L676.2,0.1h22.5v167.1h-24V66.5h-0.5l-36.1,100.7h-23L615.2,0.1L615.2,0.1z"/>
</g>
</svg>
