<?xml version="1.0" encoding="utf-8"?>
<!-- Generator: Adobe Illustrator 22.1.0, SVG Export Plug-In . SVG Version: 6.00 Build 0)  -->
<svg version="1.1" id="Capa_1" xmlns="http://www.w3.org/2000/svg" xmlns:xlink="http://www.w3.org/1999/xlink" x="0px" y="0px"
	 width="444.8px" height="444.8px" viewBox="0 0 444.8 444.8" style="enable-background:new 0 0 444.8 444.8;" xml:space="preserve"
	>
<style type="text/css">
	.st0{fill:#FDB2B2;}
</style>
<g>
	<path class="st0" d="M330.6,434.3l21.4-21.4c7-7.4,10.6-16.1,10.6-26c0-10.1-3.5-18.7-10.6-25.7L213.3,222.4L352,83.7
		c7-7,10.6-15.6,10.6-25.7c0-9.9-3.5-18.6-10.6-26l-21.4-21.1C323.4,3.6,314.7,0,304.6,0c-10.3,0-18.8,3.6-25.7,10.8L93.1,196.7
		c-7.2,6.9-10.8,15.4-10.8,25.7c0,10.1,3.6,18.8,10.8,26l185.9,185.9c7,7,15.6,10.6,25.7,10.6C314.5,444.8,323.2,441.3,330.6,434.3z
		"/>
</g>
</svg>
