<?xml version="1.0" encoding="utf-8"?>
<!-- Generator: Adobe Illustrator 22.1.0, SVG Export Plug-In . SVG Version: 6.00 Build 0)  -->
<svg version="1.1" id="Capa_1" xmlns="http://www.w3.org/2000/svg" xmlns:xlink="http://www.w3.org/1999/xlink" x="0px" y="0px"
	 width="500px" height="500px" viewBox="0 0 500 500" style="enable-background:new 0 0 500 500;" xml:space="preserve">
<style type="text/css">
	.st0{fill:#FDB2B2;}
</style>
<g>
	<g>
		<path class="st0" d="M191.4,111.6l-14,14c-4.6,4.8-6.9,10.5-6.9,17c0,6.6,2.3,12.2,6.9,16.8l90.7,90.7l-90.7,90.6
			c-4.6,4.6-6.9,10.2-6.9,16.8c0,6.5,2.3,12.2,6.9,17l14,13.8c4.7,4.7,10.4,7.1,17,7.1c6.7,0,12.3-2.4,16.8-7.1l121.5-121.5
			c4.7-4.5,7.1-10.1,7.1-16.8c0-6.6-2.4-12.3-7.1-17L225.1,111.6c-4.6-4.6-10.2-6.9-16.8-6.9C201.9,104.7,196.2,107,191.4,111.6z"/>
	</g>
	<g>
		<path class="st0" d="M250,500c-66.8,0-129.6-26-176.8-73.2C26,379.6-0.1,316.8-0.1,250c0-66.8,26-129.6,73.2-176.8
			C120.4,26,183.2,0,250,0c66.8,0,129.6,26,176.8,73.2c47.2,47.2,73.2,110,73.2,176.8c0,66.8-26,129.6-73.2,176.8
			C379.5,474,316.7,500,250,500z M250,45.5c-54.6,0-106,21.3-144.6,59.9C66.7,144,45.4,195.4,45.4,250c0,54.6,21.3,106,59.9,144.6
			c38.6,38.6,90,59.9,144.6,59.9c54.6,0,106-21.3,144.6-59.9c38.6-38.6,59.9-90,59.9-144.6c0-54.6-21.3-106-59.9-144.6
			C356,66.7,304.6,45.5,250,45.5z"/>
	</g>
</g>
</svg>
