<?xml version="1.0" encoding="utf-8"?>
<!-- Generator: Adobe Illustrator 22.1.0, SVG Export Plug-In . SVG Version: 6.00 Build 0)  -->
<svg version="1.1" xmlns="http://www.w3.org/2000/svg" xmlns:xlink="http://www.w3.org/1999/xlink" x="0px" y="0px" width="1000px"
	 height="272.7px" viewBox="0 0 1000 272.7" style="enable-background:new 0 0 1000 272.7;" xml:space="preserve">
<style type="text/css">
	.st0{fill:#FFFFFF;}
</style>
<g id="Layer_2">
</g>
<g id="Layer_1">
	<g>
		<path class="st0" d="M60.6,88.7c0-7.3,1.3-13.7,3.8-19.3c2.5-5.6,5.9-10.2,10-13.8s8.8-6.4,13.9-8.2c5.2-1.8,10.4-2.8,15.6-2.8
			c5.2,0,10.4,0.9,15.6,2.8c5.2,1.8,9.8,4.6,13.9,8.2c4.2,3.6,7.5,8.2,10,13.8c2.5,5.6,3.8,12,3.8,19.3v95.4
			c0,7.5-1.3,13.9-3.8,19.4s-5.9,10.1-10,13.7s-8.8,6.4-13.9,8.2c-5.2,1.8-10.4,2.8-15.6,2.8c-5.2,0-10.5-0.9-15.6-2.8
			c-5.2-1.8-9.8-4.6-13.9-8.2c-4.2-3.6-7.5-8.2-10-13.7c-2.5-5.5-3.8-12-3.8-19.4V88.7z M86.5,184c0,6.3,1.7,10.9,5.2,13.8
			c3.5,3,7.6,4.4,12.3,4.4c4.7,0,8.8-1.5,12.3-4.4c3.5-3,5.2-7.6,5.2-13.8V88.7c0-6.2-1.7-10.8-5.2-13.8c-3.5-3-7.6-4.4-12.3-4.4
			c-4.7,0-8.8,1.5-12.3,4.4c-3.5,3-5.2,7.6-5.2,13.8V184z"/>
		<path class="st0" d="M852.7,88.7c0-7.3,1.3-13.7,3.8-19.3s5.9-10.2,10-13.8s8.8-6.4,13.9-8.2c5.2-1.8,10.4-2.8,15.6-2.8
			s10.4,0.9,15.6,2.8c5.2,1.8,9.8,4.6,13.9,8.2c4.2,3.6,7.5,8.2,10,13.8c2.5,5.6,3.8,12,3.8,19.3v95.4c0,7.5-1.3,13.9-3.8,19.4
			c-2.5,5.5-5.9,10.1-10,13.7c-4.2,3.6-8.8,6.4-13.9,8.2c-5.2,1.8-10.4,2.8-15.6,2.8s-10.5-0.9-15.6-2.8c-5.2-1.8-9.8-4.6-13.9-8.2
			c-4.2-3.6-7.5-8.2-10-13.7c-2.5-5.5-3.8-12-3.8-19.4V88.7z M878.5,184c0,6.3,1.7,10.9,5.2,13.8c3.5,3,7.6,4.4,12.3,4.4
			s8.8-1.5,12.3-4.4c3.5-3,5.2-7.6,5.2-13.8V88.7c0-6.2-1.7-10.8-5.2-13.8c-3.5-3-7.6-4.4-12.3-4.4s-8.8,1.5-12.3,4.4
			c-3.5,3-5.2,7.6-5.2,13.8V184z"/>
		<path class="st0" d="M171.8,44.5h25.3l33.8,97.2h0.5l33.5-97.2h25.5v183.6h-26.3V116.5h-0.5l-26.1,78.9h-13.2l-25.8-78.9h-0.5
			v111.7h-26.3V44.5z"/>
		<path class="st0" d="M314.9,44.5h25.3l39.7,110.6h0.5V44.5h26.3v183.6H382l-40.2-110.4h-0.5v110.4h-26.3V44.5z"/>
		<path class="st0" d="M431.2,44.5h26.3v183.6h-26.3V44.5z"/>
		<path class="st0" d="M600.7,228.2h-26.3V116.5h-0.5l-25.8,78.9h-13.2l-26.1-78.9h-0.5v111.7H482V44.5h25.5l33.5,97.2h0.5
			l33.8-97.2h25.3L600.7,228.2L600.7,228.2z"/>
		<path class="st0" d="M625.2,88.7c0-7.5,1.3-13.9,3.8-19.4c2.5-5.5,5.9-10.1,10-13.7c4.2-3.6,8.8-6.4,13.9-8.2s10.4-2.8,15.6-2.8
			s10.4,0.9,15.6,2.8c5.2,1.8,9.8,4.6,13.9,8.2c4.2,3.6,7.5,8.2,10,13.7c2.5,5.5,3.8,12,3.8,19.4v95.4c0,7.3-1.3,13.7-3.8,19.3
			c-2.5,5.6-5.9,10.2-10,13.8c-4.2,3.6-8.8,6.4-13.9,8.2c-5.2,1.8-10.4,2.8-15.6,2.8s-10.5-0.9-15.6-2.8c-5.2-1.8-9.8-4.6-13.9-8.2
			c-4.2-3.6-7.5-8.2-10-13.8c-2.5-5.6-3.8-12-3.8-19.3V88.7z M651,184c0,6.2,1.7,10.8,5.2,13.8c3.5,3,7.6,4.4,12.3,4.4
			s8.8-1.5,12.3-4.4c3.5-3,5.2-7.6,5.2-13.8V88.7c0-6.3-1.7-10.9-5.2-13.8c-3.5-3-7.6-4.4-12.3-4.4s-8.8,1.5-12.3,4.4
			c-3.5,3-5.2,7.6-5.2,13.8V184z"/>
		<path class="st0" d="M736.4,44.5h26.3v110.4h0.5l40.2-110.4h24.8v183.6h-26.3V117.5h-0.5l-39.7,110.6h-25.3V44.5z"/>
	</g>
</g>
</svg>
