<?xml version="1.0" standalone="no"?>
<!DOCTYPE svg PUBLIC "-//W3C//DTD SVG 20010904//EN"
 "http://www.w3.org/TR/2001/REC-SVG-20010904/DTD/svg10.dtd">
<svg version="1.0" xmlns="http://www.w3.org/2000/svg"
 width="700.000000pt" height="700.000000pt" viewBox="0 0 700.000000 700.000000"
 preserveAspectRatio="xMidYMid meet">
<metadata>
Created by potrace 1.14, written by Peter Selinger 2001-2017
</metadata>
<g transform="translate(0.000000,700.000000) scale(0.100000,-0.100000)"
fill="#000000" stroke="none">
<path d="M3265 6248 c-334 -60 -625 -233 -817 -486 -68 -89 -167 -285 -197
-387 -59 -207 -56 -99 -56 -1860 0 -885 4 -1637 9 -1670 36 -254 125 -462 275
-645 166 -204 410 -356 688 -429 101 -27 185 -36 328 -36 144 0 230 8 320 31
116 29 158 44 275 98 128 59 285 171 376 268 177 189 301 447 328 683 3 28 8
70 12 95 3 25 5 747 5 1605 1 1522 0 1563 -20 1680 -35 206 -87 339 -199 510
-274 416 -811 636 -1327 543z m360 -773 c105 -22 190 -68 266 -144 65 -66 103
-136 125 -231 4 -19 9 -724 11 -1565 4 -1680 5 -1631 -56 -1757 -74 -152 -238
-251 -436 -265 -164 -10 -312 44 -426 157 -53 53 -71 78 -92 135 -14 39 -31
95 -36 125 -12 64 -10 3119 2 3163 34 127 68 187 142 255 129 118 316 166 500
127z"/>
</g>
</svg>
